<svg width="761" height="202" viewBox="0 0 761 202" fill="none" xmlns="http://www.w3.org/2000/svg">
<g filter="url(#filter0_d_93_2)">
<path d="M601.766 116.327C593.482 101.979 598.398 83.631 612.747 75.3467L671.176 41.613C685.524 33.3287 703.872 38.245 712.156 52.5938L745.89 111.022C754.174 125.371 749.258 143.719 734.909 152.003L676.481 185.737C662.132 194.021 643.784 189.105 635.5 174.756L601.766 116.327Z" fill="#EC5863"/>
<rect y="142.807" width="65.7521" height="65.7521" rx="16" transform="rotate(-30 0 142.807)" fill="#EC5863"/>
<path d="M330.024 17.3296C346.028 21.6179 355.525 38.068 351.237 54.072L341.672 89.7691C337.384 105.773 320.934 115.271 304.93 110.982L269.233 101.417C253.229 97.129 243.731 80.6789 248.019 64.6749L257.584 28.9778C261.873 12.9738 278.323 3.47633 294.327 7.76458L330.024 17.3296Z" fill="#EC5863"/>
</g>
<g filter="url(#filter1_d_93_2)">
<g filter="url(#filter2_d_93_2)">
<rect x="31" y="50.9308" width="654" height="117" rx="16" fill="white"/>
</g>
<path d="M283.076 112.931C282.86 112.931 282.68 112.859 282.536 112.715C282.392 112.547 282.32 112.355 282.32 112.139C282.32 112.043 282.344 111.935 282.392 111.815L290.708 93.1668H279.908C279.668 93.1668 279.452 93.0828 279.26 92.9148C279.092 92.7228 279.008 92.4948 279.008 92.2308V88.6308C279.008 88.3668 279.092 88.1508 279.26 87.9828C279.452 87.8148 279.668 87.7308 279.908 87.7308H296.756C297.044 87.7308 297.272 87.8148 297.44 87.9828C297.608 88.1508 297.692 88.3668 297.692 88.6308V91.8348C297.692 92.1948 297.656 92.4948 297.584 92.7348C297.512 92.9748 297.416 93.2148 297.296 93.4548L288.98 112.067C288.908 112.211 288.776 112.391 288.584 112.607C288.392 112.823 288.104 112.931 287.72 112.931H283.076ZM315.845 113.291C314.069 113.291 312.509 113.087 311.165 112.679C309.845 112.271 308.753 111.707 307.889 110.987C307.025 110.243 306.377 109.403 305.945 108.467C305.513 107.507 305.297 106.475 305.297 105.371C305.297 104.051 305.621 102.887 306.269 101.879C306.941 100.871 307.781 100.091 308.789 99.5388C307.949 98.9868 307.301 98.3028 306.845 97.4868C306.413 96.6468 306.197 95.6748 306.197 94.5708C306.197 93.2268 306.545 92.0148 307.241 90.9348C307.937 89.8548 308.993 88.9908 310.409 88.3428C311.825 87.6948 313.637 87.3708 315.845 87.3708C318.029 87.3708 319.829 87.6948 321.245 88.3428C322.661 88.9668 323.705 89.8188 324.377 90.8988C325.073 91.9788 325.421 93.1908 325.421 94.5348C325.421 95.6148 325.205 96.5868 324.773 97.4508C324.341 98.2908 323.717 98.9868 322.901 99.5388C323.957 100.067 324.809 100.847 325.457 101.879C326.105 102.911 326.429 104.087 326.429 105.407C326.429 106.847 326.033 108.167 325.241 109.367C324.473 110.567 323.309 111.527 321.749 112.247C320.189 112.943 318.221 113.291 315.845 113.291ZM315.845 108.719C316.613 108.719 317.297 108.587 317.897 108.323C318.521 108.035 319.013 107.651 319.373 107.171C319.733 106.667 319.913 106.079 319.913 105.407C319.913 104.687 319.733 104.087 319.373 103.607C319.013 103.127 318.521 102.755 317.897 102.491C317.297 102.227 316.613 102.095 315.845 102.095C315.077 102.095 314.381 102.227 313.757 102.491C313.133 102.755 312.641 103.127 312.281 103.607C311.921 104.087 311.741 104.687 311.741 105.407C311.741 106.079 311.921 106.667 312.281 107.171C312.641 107.651 313.133 108.035 313.757 108.323C314.381 108.587 315.077 108.719 315.845 108.719ZM315.845 97.7388C316.517 97.7388 317.129 97.6188 317.681 97.3788C318.233 97.1148 318.665 96.7788 318.977 96.3708C319.289 95.9388 319.445 95.4348 319.445 94.8588C319.445 94.2828 319.289 93.7788 318.977 93.3468C318.689 92.9148 318.269 92.5788 317.717 92.3388C317.165 92.0988 316.541 91.9788 315.845 91.9788C315.149 91.9788 314.525 92.0988 313.973 92.3388C313.421 92.5788 312.989 92.9148 312.677 93.3468C312.389 93.7788 312.245 94.2828 312.245 94.8588C312.245 95.4348 312.389 95.9388 312.677 96.3708C312.989 96.8028 313.421 97.1388 313.973 97.3788C314.525 97.6188 315.149 97.7388 315.845 97.7388Z" fill="#EC5863"/>
<path d="M258.227 137.041C257.53 137.041 256.932 136.927 256.434 136.7C255.942 136.472 255.557 136.139 255.279 135.699C255.007 135.259 254.857 134.712 254.828 134.06C254.82 133.759 254.817 133.436 254.817 133.092C254.817 132.747 254.82 132.417 254.828 132.102C254.857 131.464 255.011 130.925 255.29 130.485C255.568 130.037 255.957 129.7 256.456 129.473C256.954 129.238 257.545 129.121 258.227 129.121C258.711 129.121 259.158 129.183 259.569 129.308C259.979 129.425 260.339 129.601 260.647 129.836C260.955 130.063 261.193 130.342 261.362 130.672C261.538 130.994 261.629 131.361 261.637 131.772C261.644 131.838 261.622 131.893 261.571 131.937C261.527 131.981 261.472 132.003 261.406 132.003H259.921C259.825 132.003 259.752 131.984 259.701 131.948C259.649 131.904 259.605 131.827 259.569 131.717C259.466 131.328 259.297 131.064 259.063 130.925C258.835 130.778 258.553 130.705 258.216 130.705C257.812 130.705 257.493 130.818 257.259 131.046C257.024 131.266 256.896 131.636 256.874 132.157C256.852 132.758 256.852 133.374 256.874 134.005C256.896 134.525 257.024 134.899 257.259 135.127C257.493 135.347 257.812 135.457 258.216 135.457C258.553 135.457 258.839 135.383 259.074 135.237C259.308 135.09 259.473 134.826 259.569 134.445C259.598 134.335 259.638 134.261 259.69 134.225C259.748 134.181 259.825 134.159 259.921 134.159H261.406C261.472 134.159 261.527 134.181 261.571 134.225C261.622 134.269 261.644 134.324 261.637 134.39C261.629 134.8 261.538 135.171 261.362 135.501C261.193 135.823 260.955 136.102 260.647 136.337C260.339 136.564 259.979 136.74 259.569 136.865C259.158 136.982 258.711 137.041 258.227 137.041ZM270.009 137.041C269.335 137.041 268.748 136.931 268.249 136.711C267.751 136.491 267.362 136.161 267.083 135.721C266.805 135.273 266.651 134.716 266.621 134.049C266.614 133.733 266.61 133.418 266.61 133.103C266.61 132.787 266.614 132.468 266.621 132.146C266.651 131.486 266.805 130.932 267.083 130.485C267.369 130.03 267.762 129.689 268.26 129.462C268.759 129.234 269.342 129.121 270.009 129.121C270.669 129.121 271.249 129.234 271.747 129.462C272.253 129.689 272.649 130.03 272.935 130.485C273.221 130.932 273.375 131.486 273.397 132.146C273.412 132.468 273.419 132.787 273.419 133.103C273.419 133.418 273.412 133.733 273.397 134.049C273.368 134.716 273.214 135.273 272.935 135.721C272.657 136.161 272.268 136.491 271.769 136.711C271.271 136.931 270.684 137.041 270.009 137.041ZM270.009 135.457C270.398 135.457 270.713 135.339 270.955 135.105C271.205 134.87 271.337 134.496 271.351 133.983C271.366 133.66 271.373 133.356 271.373 133.07C271.373 132.784 271.366 132.487 271.351 132.179C271.337 131.834 271.271 131.555 271.153 131.343C271.043 131.123 270.889 130.961 270.691 130.859C270.493 130.756 270.266 130.705 270.009 130.705C269.76 130.705 269.536 130.756 269.338 130.859C269.14 130.961 268.983 131.123 268.865 131.343C268.748 131.555 268.682 131.834 268.667 132.179C268.66 132.487 268.656 132.784 268.656 133.07C268.656 133.356 268.66 133.66 268.667 133.983C268.689 134.496 268.821 134.87 269.063 135.105C269.305 135.339 269.621 135.457 270.009 135.457ZM281.987 137.041C281.327 137.041 280.748 136.934 280.249 136.722C279.758 136.502 279.377 136.168 279.105 135.721C278.834 135.266 278.698 134.69 278.698 133.994V129.506C278.698 129.425 278.724 129.359 278.775 129.308C278.827 129.256 278.893 129.231 278.973 129.231H280.392C280.473 129.231 280.539 129.256 280.59 129.308C280.642 129.359 280.667 129.425 280.667 129.506V133.983C280.667 134.459 280.781 134.819 281.008 135.061C281.243 135.295 281.569 135.413 281.987 135.413C282.398 135.413 282.717 135.295 282.944 135.061C283.179 134.819 283.296 134.459 283.296 133.983V129.506C283.296 129.425 283.322 129.359 283.373 129.308C283.432 129.256 283.498 129.231 283.571 129.231H285.001C285.075 129.231 285.137 129.256 285.188 129.308C285.247 129.359 285.276 129.425 285.276 129.506V133.994C285.276 134.69 285.141 135.266 284.869 135.721C284.598 136.168 284.217 136.502 283.725 136.722C283.234 136.934 282.655 137.041 281.987 137.041ZM291.08 136.931C290.999 136.931 290.933 136.905 290.882 136.854C290.831 136.802 290.805 136.736 290.805 136.656V129.506C290.805 129.425 290.831 129.359 290.882 129.308C290.933 129.256 290.999 129.231 291.08 129.231H292.246C292.371 129.231 292.459 129.26 292.51 129.319C292.569 129.37 292.605 129.41 292.62 129.44L295.304 133.675V129.506C295.304 129.425 295.33 129.359 295.381 129.308C295.432 129.256 295.498 129.231 295.579 129.231H296.899C296.98 129.231 297.046 129.256 297.097 129.308C297.148 129.359 297.174 129.425 297.174 129.506V136.656C297.174 136.729 297.148 136.795 297.097 136.854C297.046 136.905 296.98 136.931 296.899 136.931H295.722C295.605 136.931 295.517 136.901 295.458 136.843C295.407 136.784 295.374 136.744 295.359 136.722L292.675 132.652V136.656C292.675 136.736 292.649 136.802 292.598 136.854C292.547 136.905 292.481 136.931 292.4 136.931H291.08ZM304.75 136.931C304.67 136.931 304.604 136.905 304.552 136.854C304.501 136.802 304.475 136.736 304.475 136.656V130.958H302.517C302.437 130.958 302.371 130.932 302.319 130.881C302.268 130.822 302.242 130.756 302.242 130.683V129.506C302.242 129.425 302.268 129.359 302.319 129.308C302.371 129.256 302.437 129.231 302.517 129.231H308.435C308.516 129.231 308.582 129.256 308.633 129.308C308.685 129.359 308.71 129.425 308.71 129.506V130.683C308.71 130.756 308.685 130.822 308.633 130.881C308.582 130.932 308.516 130.958 308.435 130.958H306.477V136.656C306.477 136.736 306.452 136.802 306.4 136.854C306.349 136.905 306.283 136.931 306.202 136.931H304.75ZM314.055 136.931C313.974 136.931 313.908 136.905 313.857 136.854C313.806 136.802 313.78 136.736 313.78 136.656V129.506C313.78 129.425 313.806 129.359 313.857 129.308C313.908 129.256 313.974 129.231 314.055 129.231H317.047C317.993 129.231 318.737 129.451 319.28 129.891C319.83 130.323 320.105 130.939 320.105 131.739C320.105 132.259 319.977 132.699 319.72 133.059C319.471 133.418 319.141 133.689 318.73 133.873L320.248 136.579C320.27 136.623 320.281 136.663 320.281 136.7C320.281 136.758 320.255 136.813 320.204 136.865C320.16 136.909 320.105 136.931 320.039 136.931H318.587C318.448 136.931 318.345 136.898 318.279 136.832C318.213 136.758 318.165 136.692 318.136 136.634L316.882 134.214H315.749V136.656C315.749 136.736 315.723 136.802 315.672 136.854C315.621 136.905 315.555 136.931 315.474 136.931H314.055ZM315.749 132.663H317.025C317.37 132.663 317.626 132.578 317.795 132.41C317.971 132.241 318.059 132.01 318.059 131.717C318.059 131.431 317.975 131.2 317.806 131.024C317.645 130.848 317.384 130.76 317.025 130.76H315.749V132.663ZM325.73 136.931C325.65 136.931 325.584 136.905 325.532 136.854C325.481 136.802 325.455 136.736 325.455 136.656V129.506C325.455 129.425 325.481 129.359 325.532 129.308C325.584 129.256 325.65 129.231 325.73 129.231H327.204C327.285 129.231 327.351 129.256 327.402 129.308C327.454 129.359 327.479 129.425 327.479 129.506V136.656C327.479 136.736 327.454 136.802 327.402 136.854C327.351 136.905 327.285 136.931 327.204 136.931H325.73ZM333.367 136.931C333.286 136.931 333.22 136.905 333.169 136.854C333.117 136.802 333.092 136.736 333.092 136.656V129.506C333.092 129.425 333.117 129.359 333.169 129.308C333.22 129.256 333.286 129.231 333.367 129.231H338.504C338.584 129.231 338.65 129.256 338.702 129.308C338.753 129.359 338.779 129.425 338.779 129.506V130.54C338.779 130.62 338.753 130.686 338.702 130.738C338.65 130.789 338.584 130.815 338.504 130.815H334.995V132.3H338.262C338.342 132.3 338.408 132.329 338.46 132.388C338.511 132.439 338.537 132.505 338.537 132.586V133.543C338.537 133.616 338.511 133.682 338.46 133.741C338.408 133.792 338.342 133.818 338.262 133.818H334.995V135.347H338.592C338.672 135.347 338.738 135.372 338.79 135.424C338.841 135.475 338.867 135.541 338.867 135.622V136.656C338.867 136.736 338.841 136.802 338.79 136.854C338.738 136.905 338.672 136.931 338.592 136.931H333.367ZM347.058 137.041C346.325 137.041 345.716 136.938 345.232 136.733C344.748 136.52 344.382 136.245 344.132 135.908C343.883 135.57 343.751 135.211 343.736 134.83C343.736 134.771 343.758 134.72 343.802 134.676C343.854 134.624 343.912 134.599 343.978 134.599H345.364C345.467 134.599 345.544 134.617 345.595 134.654C345.654 134.69 345.705 134.738 345.749 134.797C345.808 134.907 345.889 135.013 345.991 135.116C346.101 135.218 346.241 135.303 346.409 135.369C346.585 135.427 346.802 135.457 347.058 135.457C347.484 135.457 347.803 135.391 348.015 135.259C348.235 135.127 348.345 134.947 348.345 134.72C348.345 134.558 348.287 134.426 348.169 134.324C348.052 134.214 347.861 134.118 347.597 134.038C347.341 133.95 346.996 133.862 346.563 133.774C346.006 133.656 345.529 133.506 345.133 133.323C344.745 133.132 344.448 132.886 344.242 132.586C344.037 132.278 343.934 131.896 343.934 131.442C343.934 130.994 344.059 130.595 344.308 130.243C344.565 129.891 344.921 129.616 345.375 129.418C345.83 129.22 346.369 129.121 346.992 129.121C347.498 129.121 347.942 129.187 348.323 129.319C348.712 129.451 349.038 129.627 349.302 129.847C349.566 130.067 349.764 130.301 349.896 130.551C350.036 130.793 350.109 131.031 350.116 131.266C350.116 131.324 350.094 131.379 350.05 131.431C350.006 131.475 349.951 131.497 349.885 131.497H348.433C348.353 131.497 348.283 131.482 348.224 131.453C348.166 131.423 348.114 131.376 348.07 131.31C348.026 131.148 347.909 131.009 347.718 130.892C347.535 130.767 347.293 130.705 346.992 130.705C346.67 130.705 346.417 130.763 346.233 130.881C346.057 130.991 345.969 131.163 345.969 131.398C345.969 131.544 346.017 131.673 346.112 131.783C346.215 131.893 346.38 131.988 346.607 132.069C346.842 132.149 347.161 132.234 347.564 132.322C348.232 132.446 348.771 132.604 349.181 132.795C349.592 132.978 349.893 133.22 350.083 133.521C350.274 133.814 350.369 134.184 350.369 134.632C350.369 135.13 350.226 135.563 349.94 135.93C349.662 136.289 349.273 136.564 348.774 136.755C348.276 136.945 347.704 137.041 347.058 137.041Z" fill="black"/>
<path d="M114.714 112.931C114.45 112.931 114.222 112.847 114.03 112.679C113.862 112.511 113.778 112.295 113.778 112.031V109.475C113.778 109.307 113.826 109.055 113.922 108.719C114.018 108.359 114.27 108.023 114.678 107.711L118.422 104.039C120.342 102.575 121.914 101.339 123.138 100.331C124.386 99.2988 125.31 98.3868 125.91 97.5948C126.51 96.8028 126.81 96.0588 126.81 95.3628C126.81 94.5468 126.594 93.8748 126.162 93.3468C125.754 92.7948 125.034 92.5188 124.002 92.5188C123.306 92.5188 122.718 92.6748 122.238 92.9868C121.782 93.2748 121.434 93.6588 121.194 94.1388C120.954 94.6188 120.786 95.1108 120.69 95.6148C120.594 95.9268 120.426 96.1428 120.186 96.2628C119.97 96.3828 119.73 96.4428 119.466 96.4428H114.966C114.75 96.4428 114.57 96.3708 114.426 96.2268C114.282 96.0828 114.21 95.9028 114.21 95.6868C114.234 94.5348 114.474 93.4548 114.93 92.4468C115.41 91.4388 116.07 90.5508 116.91 89.7828C117.774 88.9908 118.794 88.3788 119.97 87.9468C121.17 87.5148 122.514 87.2988 124.002 87.2988C126.042 87.2988 127.77 87.6228 129.186 88.2708C130.626 88.9188 131.718 89.8308 132.462 91.0068C133.206 92.1588 133.578 93.5148 133.578 95.0748C133.578 96.2508 133.314 97.3548 132.786 98.3868C132.282 99.3948 131.55 100.367 130.59 101.303C129.654 102.215 128.538 103.163 127.242 104.147L123.93 107.495H133.182C133.446 107.495 133.662 107.579 133.83 107.747C134.022 107.915 134.118 108.131 134.118 108.395V112.031C134.118 112.295 134.022 112.511 133.83 112.679C133.662 112.847 133.446 112.931 133.182 112.931H114.714ZM143.78 112.931C143.516 112.931 143.3 112.847 143.132 112.679C142.964 112.511 142.88 112.295 142.88 112.031V95.1108C142.88 94.8468 142.964 94.6308 143.132 94.4628C143.3 94.2948 143.516 94.2108 143.78 94.2108H147.704C147.968 94.2108 148.184 94.2948 148.352 94.4628C148.52 94.6308 148.604 94.8468 148.604 95.1108V96.3348C149.084 95.6868 149.756 95.1228 150.62 94.6428C151.484 94.1388 152.504 93.8748 153.68 93.8508C156.44 93.8028 158.336 94.8468 159.368 96.9828C159.92 96.0708 160.712 95.3268 161.744 94.7508C162.776 94.1508 163.904 93.8508 165.128 93.8508C166.376 93.8508 167.492 94.1388 168.476 94.7148C169.484 95.2668 170.288 96.1308 170.888 97.3068C171.488 98.4588 171.788 99.9588 171.788 101.807V112.031C171.788 112.295 171.692 112.511 171.5 112.679C171.332 112.847 171.128 112.931 170.888 112.931H166.712C166.448 112.931 166.22 112.847 166.028 112.679C165.86 112.511 165.776 112.295 165.776 112.031V102.059C165.776 101.219 165.656 100.559 165.416 100.079C165.176 99.5748 164.852 99.2148 164.444 98.9988C164.036 98.7828 163.568 98.6748 163.04 98.6748C162.608 98.6748 162.176 98.7828 161.744 98.9988C161.336 99.2148 161 99.5748 160.736 100.079C160.496 100.559 160.376 101.219 160.376 102.059V112.031C160.376 112.295 160.292 112.511 160.124 112.679C159.956 112.847 159.74 112.931 159.476 112.931H155.3C155.036 112.931 154.82 112.847 154.652 112.679C154.484 112.511 154.4 112.295 154.4 112.031V102.059C154.4 101.219 154.268 100.559 154.004 100.079C153.74 99.5748 153.404 99.2148 152.996 98.9988C152.588 98.7828 152.132 98.6748 151.628 98.6748C151.196 98.6748 150.764 98.7828 150.332 98.9988C149.924 99.2148 149.588 99.5748 149.324 100.079C149.084 100.559 148.964 101.207 148.964 102.023V112.031C148.964 112.295 148.868 112.511 148.676 112.679C148.508 112.847 148.292 112.931 148.028 112.931H143.78Z" fill="#EC5863"/>
<path d="M120.269 137.041C119.609 137.041 119.03 136.934 118.531 136.722C118.04 136.502 117.658 136.168 117.387 135.721C117.116 135.266 116.98 134.69 116.98 133.994V129.506C116.98 129.425 117.006 129.359 117.057 129.308C117.108 129.256 117.174 129.231 117.255 129.231H118.674C118.755 129.231 118.821 129.256 118.872 129.308C118.923 129.359 118.949 129.425 118.949 129.506V133.983C118.949 134.459 119.063 134.819 119.29 135.061C119.525 135.295 119.851 135.413 120.269 135.413C120.68 135.413 120.999 135.295 121.226 135.061C121.461 134.819 121.578 134.459 121.578 133.983V129.506C121.578 129.425 121.604 129.359 121.655 129.308C121.714 129.256 121.78 129.231 121.853 129.231H123.283C123.356 129.231 123.419 129.256 123.47 129.308C123.529 129.359 123.558 129.425 123.558 129.506V133.994C123.558 134.69 123.422 135.266 123.151 135.721C122.88 136.168 122.498 136.502 122.007 136.722C121.516 136.934 120.936 137.041 120.269 137.041ZM131.958 137.041C131.224 137.041 130.616 136.938 130.132 136.733C129.648 136.52 129.281 136.245 129.032 135.908C128.782 135.57 128.65 135.211 128.636 134.83C128.636 134.771 128.658 134.72 128.702 134.676C128.753 134.624 128.812 134.599 128.878 134.599H130.264C130.366 134.599 130.443 134.617 130.495 134.654C130.553 134.69 130.605 134.738 130.649 134.797C130.707 134.907 130.788 135.013 130.891 135.116C131.001 135.218 131.14 135.303 131.309 135.369C131.485 135.427 131.701 135.457 131.958 135.457C132.383 135.457 132.702 135.391 132.915 135.259C133.135 135.127 133.245 134.947 133.245 134.72C133.245 134.558 133.186 134.426 133.069 134.324C132.951 134.214 132.761 134.118 132.497 134.038C132.24 133.95 131.895 133.862 131.463 133.774C130.905 133.656 130.429 133.506 130.033 133.323C129.644 133.132 129.347 132.886 129.142 132.586C128.936 132.278 128.834 131.896 128.834 131.442C128.834 130.994 128.958 130.595 129.208 130.243C129.464 129.891 129.82 129.616 130.275 129.418C130.729 129.22 131.268 129.121 131.892 129.121C132.398 129.121 132.841 129.187 133.223 129.319C133.611 129.451 133.938 129.627 134.202 129.847C134.466 130.067 134.664 130.301 134.796 130.551C134.935 130.793 135.008 131.031 135.016 131.266C135.016 131.324 134.994 131.379 134.95 131.431C134.906 131.475 134.851 131.497 134.785 131.497H133.333C133.252 131.497 133.182 131.482 133.124 131.453C133.065 131.423 133.014 131.376 132.97 131.31C132.926 131.148 132.808 131.009 132.618 130.892C132.434 130.767 132.192 130.705 131.892 130.705C131.569 130.705 131.316 130.763 131.133 130.881C130.957 130.991 130.869 131.163 130.869 131.398C130.869 131.544 130.916 131.673 131.012 131.783C131.114 131.893 131.279 131.988 131.507 132.069C131.741 132.149 132.06 132.234 132.464 132.322C133.131 132.446 133.67 132.604 134.081 132.795C134.491 132.978 134.792 133.22 134.983 133.521C135.173 133.814 135.269 134.184 135.269 134.632C135.269 135.13 135.126 135.563 134.84 135.93C134.561 136.289 134.172 136.564 133.674 136.755C133.175 136.945 132.603 137.041 131.958 137.041ZM140.715 136.931C140.634 136.931 140.568 136.905 140.517 136.854C140.466 136.802 140.44 136.736 140.44 136.656V129.506C140.44 129.425 140.466 129.359 140.517 129.308C140.568 129.256 140.634 129.231 140.715 129.231H145.852C145.933 129.231 145.999 129.256 146.05 129.308C146.101 129.359 146.127 129.425 146.127 129.506V130.54C146.127 130.62 146.101 130.686 146.05 130.738C145.999 130.789 145.933 130.815 145.852 130.815H142.343V132.3H145.61C145.691 132.3 145.757 132.329 145.808 132.388C145.859 132.439 145.885 132.505 145.885 132.586V133.543C145.885 133.616 145.859 133.682 145.808 133.741C145.757 133.792 145.691 133.818 145.61 133.818H142.343V135.347H145.94C146.021 135.347 146.087 135.372 146.138 135.424C146.189 135.475 146.215 135.541 146.215 135.622V136.656C146.215 136.736 146.189 136.802 146.138 136.854C146.087 136.905 146.021 136.931 145.94 136.931H140.715ZM151.81 136.931C151.73 136.931 151.664 136.905 151.612 136.854C151.561 136.802 151.535 136.736 151.535 136.656V129.506C151.535 129.425 151.561 129.359 151.612 129.308C151.664 129.256 151.73 129.231 151.81 129.231H154.802C155.748 129.231 156.493 129.451 157.035 129.891C157.585 130.323 157.86 130.939 157.86 131.739C157.86 132.259 157.732 132.699 157.475 133.059C157.226 133.418 156.896 133.689 156.485 133.873L158.003 136.579C158.025 136.623 158.036 136.663 158.036 136.7C158.036 136.758 158.011 136.813 157.959 136.865C157.915 136.909 157.86 136.931 157.794 136.931H156.342C156.203 136.931 156.1 136.898 156.034 136.832C155.968 136.758 155.921 136.692 155.891 136.634L154.637 134.214H153.504V136.656C153.504 136.736 153.479 136.802 153.427 136.854C153.376 136.905 153.31 136.931 153.229 136.931H151.81ZM153.504 132.663H154.78C155.125 132.663 155.382 132.578 155.55 132.41C155.726 132.241 155.814 132.01 155.814 131.717C155.814 131.431 155.73 131.2 155.561 131.024C155.4 130.848 155.14 130.76 154.78 130.76H153.504V132.663ZM166.082 137.041C165.348 137.041 164.74 136.938 164.256 136.733C163.772 136.52 163.405 136.245 163.156 135.908C162.906 135.57 162.774 135.211 162.76 134.83C162.76 134.771 162.782 134.72 162.826 134.676C162.877 134.624 162.936 134.599 163.002 134.599H164.388C164.49 134.599 164.567 134.617 164.619 134.654C164.677 134.69 164.729 134.738 164.773 134.797C164.831 134.907 164.912 135.013 165.015 135.116C165.125 135.218 165.264 135.303 165.433 135.369C165.609 135.427 165.825 135.457 166.082 135.457C166.507 135.457 166.826 135.391 167.039 135.259C167.259 135.127 167.369 134.947 167.369 134.72C167.369 134.558 167.31 134.426 167.193 134.324C167.075 134.214 166.885 134.118 166.621 134.038C166.364 133.95 166.019 133.862 165.587 133.774C165.029 133.656 164.553 133.506 164.157 133.323C163.768 133.132 163.471 132.886 163.266 132.586C163.06 132.278 162.958 131.896 162.958 131.442C162.958 130.994 163.082 130.595 163.332 130.243C163.588 129.891 163.944 129.616 164.399 129.418C164.853 129.22 165.392 129.121 166.016 129.121C166.522 129.121 166.965 129.187 167.347 129.319C167.735 129.451 168.062 129.627 168.326 129.847C168.59 130.067 168.788 130.301 168.92 130.551C169.059 130.793 169.132 131.031 169.14 131.266C169.14 131.324 169.118 131.379 169.074 131.431C169.03 131.475 168.975 131.497 168.909 131.497H167.457C167.376 131.497 167.306 131.482 167.248 131.453C167.189 131.423 167.138 131.376 167.094 131.31C167.05 131.148 166.932 131.009 166.742 130.892C166.558 130.767 166.316 130.705 166.016 130.705C165.693 130.705 165.44 130.763 165.257 130.881C165.081 130.991 164.993 131.163 164.993 131.398C164.993 131.544 165.04 131.673 165.136 131.783C165.238 131.893 165.403 131.988 165.631 132.069C165.865 132.149 166.184 132.234 166.588 132.322C167.255 132.446 167.794 132.604 168.205 132.795C168.615 132.978 168.916 133.22 169.107 133.521C169.297 133.814 169.393 134.184 169.393 134.632C169.393 135.13 169.25 135.563 168.964 135.93C168.685 136.289 168.296 136.564 167.798 136.755C167.299 136.945 166.727 137.041 166.082 137.041Z" fill="black"/>
<path d="M438.27 112.931C438.03 112.931 437.814 112.847 437.622 112.679C437.454 112.511 437.37 112.295 437.37 112.031V94.8948L432.438 98.6748C432.222 98.8428 431.994 98.9028 431.754 98.8548C431.538 98.8068 431.346 98.6748 431.178 98.4588L429.054 95.6868C428.91 95.4708 428.85 95.2428 428.874 95.0028C428.922 94.7388 429.066 94.5348 429.306 94.3908L437.586 87.9828C437.73 87.8868 437.862 87.8268 437.982 87.8028C438.126 87.7548 438.282 87.7308 438.45 87.7308H442.95C443.19 87.7308 443.394 87.8148 443.562 87.9828C443.754 88.1508 443.85 88.3668 443.85 88.6308V112.031C443.85 112.295 443.754 112.511 443.562 112.679C443.394 112.847 443.19 112.931 442.95 112.931H438.27ZM463.436 113.291C461.708 113.291 460.208 113.051 458.936 112.571C457.664 112.067 456.608 111.383 455.768 110.519C454.952 109.655 454.328 108.647 453.896 107.495C453.464 106.343 453.212 105.107 453.14 103.787C453.116 103.139 453.092 102.407 453.068 101.591C453.068 100.751 453.068 99.9108 453.068 99.0708C453.092 98.2068 453.116 97.4388 453.14 96.7668C453.212 95.4468 453.464 94.2228 453.896 93.0948C454.352 91.9428 455 90.9468 455.84 90.1068C456.704 89.2428 457.76 88.5708 459.008 88.0908C460.28 87.6108 461.756 87.3708 463.436 87.3708C465.14 87.3708 466.616 87.6108 467.864 88.0908C469.112 88.5708 470.156 89.2428 470.996 90.1068C471.86 90.9468 472.52 91.9428 472.976 93.0948C473.432 94.2228 473.684 95.4468 473.732 96.7668C473.78 97.4388 473.804 98.2068 473.804 99.0708C473.828 99.9108 473.828 100.751 473.804 101.591C473.804 102.407 473.78 103.139 473.732 103.787C473.684 105.107 473.432 106.343 472.976 107.495C472.544 108.647 471.908 109.655 471.068 110.519C470.252 111.383 469.208 112.067 467.936 112.571C466.688 113.051 465.188 113.291 463.436 113.291ZM463.436 108.071C464.684 108.071 465.584 107.675 466.136 106.883C466.712 106.067 467.012 104.975 467.036 103.607C467.084 102.911 467.108 102.179 467.108 101.411C467.132 100.643 467.132 99.8748 467.108 99.1068C467.108 98.3388 467.084 97.6308 467.036 96.9828C467.012 95.6628 466.712 94.5948 466.136 93.7788C465.584 92.9628 464.684 92.5428 463.436 92.5188C462.188 92.5428 461.288 92.9628 460.736 93.7788C460.184 94.5948 459.884 95.6628 459.836 96.9828C459.812 97.6308 459.788 98.3388 459.764 99.1068C459.764 99.8748 459.764 100.643 459.764 101.411C459.788 102.179 459.812 102.911 459.836 103.607C459.884 104.975 460.196 106.067 460.772 106.883C461.348 107.675 462.236 108.071 463.436 108.071ZM482.367 115.631C482.175 115.631 482.007 115.547 481.863 115.379C481.719 115.235 481.659 115.055 481.683 114.839L482.799 107.783C482.847 107.471 482.967 107.195 483.159 106.955C483.375 106.691 483.687 106.559 484.095 106.559H488.307C488.499 106.559 488.655 106.631 488.775 106.775C488.919 106.919 488.991 107.075 488.991 107.243C488.991 107.387 488.967 107.531 488.919 107.675L486.183 114.623C486.087 114.863 485.943 115.091 485.751 115.307C485.559 115.523 485.271 115.631 484.887 115.631H482.367ZM507.513 113.291C505.785 113.291 504.285 113.051 503.013 112.571C501.741 112.067 500.685 111.383 499.845 110.519C499.029 109.655 498.405 108.647 497.973 107.495C497.541 106.343 497.289 105.107 497.217 103.787C497.193 103.139 497.169 102.407 497.145 101.591C497.145 100.751 497.145 99.9108 497.145 99.0708C497.169 98.2068 497.193 97.4388 497.217 96.7668C497.289 95.4468 497.541 94.2228 497.973 93.0948C498.429 91.9428 499.077 90.9468 499.917 90.1068C500.781 89.2428 501.837 88.5708 503.085 88.0908C504.357 87.6108 505.833 87.3708 507.513 87.3708C509.217 87.3708 510.693 87.6108 511.941 88.0908C513.189 88.5708 514.233 89.2428 515.073 90.1068C515.937 90.9468 516.597 91.9428 517.053 93.0948C517.509 94.2228 517.761 95.4468 517.809 96.7668C517.857 97.4388 517.881 98.2068 517.881 99.0708C517.905 99.9108 517.905 100.751 517.881 101.591C517.881 102.407 517.857 103.139 517.809 103.787C517.761 105.107 517.509 106.343 517.053 107.495C516.621 108.647 515.985 109.655 515.145 110.519C514.329 111.383 513.285 112.067 512.013 112.571C510.765 113.051 509.265 113.291 507.513 113.291ZM507.513 108.071C508.761 108.071 509.661 107.675 510.213 106.883C510.789 106.067 511.089 104.975 511.113 103.607C511.161 102.911 511.185 102.179 511.185 101.411C511.209 100.643 511.209 99.8748 511.185 99.1068C511.185 98.3388 511.161 97.6308 511.113 96.9828C511.089 95.6628 510.789 94.5948 510.213 93.7788C509.661 92.9628 508.761 92.5428 507.513 92.5188C506.265 92.5428 505.365 92.9628 504.813 93.7788C504.261 94.5948 503.961 95.6628 503.913 96.9828C503.889 97.6308 503.865 98.3388 503.841 99.1068C503.841 99.8748 503.841 100.643 503.841 101.411C503.865 102.179 503.889 102.911 503.913 103.607C503.961 104.975 504.273 106.067 504.849 106.883C505.425 107.675 506.313 108.071 507.513 108.071ZM537.021 113.291C535.293 113.291 533.793 113.051 532.521 112.571C531.249 112.067 530.193 111.383 529.353 110.519C528.537 109.655 527.913 108.647 527.481 107.495C527.049 106.343 526.797 105.107 526.725 103.787C526.701 103.139 526.677 102.407 526.653 101.591C526.653 100.751 526.653 99.9108 526.653 99.0708C526.677 98.2068 526.701 97.4388 526.725 96.7668C526.797 95.4468 527.049 94.2228 527.481 93.0948C527.937 91.9428 528.585 90.9468 529.425 90.1068C530.289 89.2428 531.345 88.5708 532.593 88.0908C533.865 87.6108 535.341 87.3708 537.021 87.3708C538.725 87.3708 540.201 87.6108 541.449 88.0908C542.697 88.5708 543.741 89.2428 544.581 90.1068C545.445 90.9468 546.105 91.9428 546.561 93.0948C547.017 94.2228 547.269 95.4468 547.317 96.7668C547.365 97.4388 547.389 98.2068 547.389 99.0708C547.413 99.9108 547.413 100.751 547.389 101.591C547.389 102.407 547.365 103.139 547.317 103.787C547.269 105.107 547.017 106.343 546.561 107.495C546.129 108.647 545.493 109.655 544.653 110.519C543.837 111.383 542.793 112.067 541.521 112.571C540.273 113.051 538.773 113.291 537.021 113.291ZM537.021 108.071C538.269 108.071 539.169 107.675 539.721 106.883C540.297 106.067 540.597 104.975 540.621 103.607C540.669 102.911 540.693 102.179 540.693 101.411C540.717 100.643 540.717 99.8748 540.693 99.1068C540.693 98.3388 540.669 97.6308 540.621 96.9828C540.597 95.6628 540.297 94.5948 539.721 93.7788C539.169 92.9628 538.269 92.5428 537.021 92.5188C535.773 92.5428 534.873 92.9628 534.321 93.7788C533.769 94.5948 533.469 95.6628 533.421 96.9828C533.397 97.6308 533.373 98.3388 533.349 99.1068C533.349 99.8748 533.349 100.643 533.349 101.411C533.373 102.179 533.397 102.911 533.421 103.607C533.469 104.975 533.781 106.067 534.357 106.883C534.933 107.675 535.821 108.071 537.021 108.071ZM566.53 113.291C564.802 113.291 563.302 113.051 562.03 112.571C560.758 112.067 559.702 111.383 558.862 110.519C558.046 109.655 557.422 108.647 556.99 107.495C556.558 106.343 556.306 105.107 556.234 103.787C556.21 103.139 556.186 102.407 556.162 101.591C556.162 100.751 556.162 99.9108 556.162 99.0708C556.186 98.2068 556.21 97.4388 556.234 96.7668C556.306 95.4468 556.558 94.2228 556.99 93.0948C557.446 91.9428 558.094 90.9468 558.934 90.1068C559.798 89.2428 560.854 88.5708 562.102 88.0908C563.374 87.6108 564.85 87.3708 566.53 87.3708C568.234 87.3708 569.71 87.6108 570.958 88.0908C572.206 88.5708 573.25 89.2428 574.09 90.1068C574.954 90.9468 575.614 91.9428 576.07 93.0948C576.526 94.2228 576.778 95.4468 576.826 96.7668C576.874 97.4388 576.898 98.2068 576.898 99.0708C576.922 99.9108 576.922 100.751 576.898 101.591C576.898 102.407 576.874 103.139 576.826 103.787C576.778 105.107 576.526 106.343 576.07 107.495C575.638 108.647 575.002 109.655 574.162 110.519C573.346 111.383 572.302 112.067 571.03 112.571C569.782 113.051 568.282 113.291 566.53 113.291ZM566.53 108.071C567.778 108.071 568.678 107.675 569.23 106.883C569.806 106.067 570.106 104.975 570.13 103.607C570.178 102.911 570.202 102.179 570.202 101.411C570.226 100.643 570.226 99.8748 570.202 99.1068C570.202 98.3388 570.178 97.6308 570.13 96.9828C570.106 95.6628 569.806 94.5948 569.23 93.7788C568.678 92.9628 567.778 92.5428 566.53 92.5188C565.282 92.5428 564.382 92.9628 563.83 93.7788C563.278 94.5948 562.978 95.6628 562.93 96.9828C562.906 97.6308 562.882 98.3388 562.858 99.1068C562.858 99.8748 562.858 100.643 562.858 101.411C562.882 102.179 562.906 102.911 562.93 103.607C562.978 104.975 563.29 106.067 563.866 106.883C564.442 107.675 565.33 108.071 566.53 108.071ZM593.303 111.743C593.039 111.743 592.823 111.659 592.655 111.491C592.487 111.323 592.403 111.107 592.403 110.843V104.255H585.995C585.731 104.255 585.503 104.171 585.311 104.003C585.143 103.835 585.059 103.619 585.059 103.355V100.727C585.059 100.463 585.143 100.247 585.311 100.079C585.503 99.9108 585.731 99.8268 585.995 99.8268H592.403V93.4188C592.403 93.1548 592.487 92.9388 592.655 92.7708C592.823 92.6028 593.039 92.5188 593.303 92.5188H596.255C596.495 92.5188 596.699 92.6028 596.867 92.7708C597.059 92.9388 597.155 93.1548 597.155 93.4188V99.8268H603.527C603.791 99.8268 604.007 99.9108 604.175 100.079C604.343 100.247 604.427 100.463 604.427 100.727V103.355C604.427 103.619 604.343 103.835 604.175 104.003C604.007 104.171 603.791 104.255 603.527 104.255H597.155V110.843C597.155 111.107 597.059 111.323 596.867 111.491C596.699 111.659 596.495 111.743 596.255 111.743H593.303Z" fill="#EC5863"/>
<path d="M438.299 136.931C438.225 136.931 438.159 136.905 438.101 136.854C438.049 136.802 438.024 136.736 438.024 136.656V129.506C438.024 129.425 438.049 129.359 438.101 129.308C438.159 129.256 438.225 129.231 438.299 129.231H439.487C439.604 129.231 439.692 129.264 439.751 129.33C439.817 129.388 439.857 129.436 439.872 129.473L441.808 132.949L443.744 129.473C443.766 129.436 443.802 129.388 443.854 129.33C443.912 129.264 444.004 129.231 444.129 129.231H445.306C445.386 129.231 445.452 129.256 445.504 129.308C445.562 129.359 445.592 129.425 445.592 129.506V136.656C445.592 136.736 445.562 136.802 445.504 136.854C445.452 136.905 445.386 136.931 445.306 136.931H443.997C443.916 136.931 443.846 136.905 443.788 136.854C443.736 136.802 443.711 136.736 443.711 136.656V132.531L442.468 134.83C442.438 134.896 442.394 134.954 442.336 135.006C442.277 135.057 442.196 135.083 442.094 135.083H441.522C441.419 135.083 441.338 135.057 441.28 135.006C441.221 134.954 441.173 134.896 441.137 134.83L439.894 132.531V136.656C439.894 136.736 439.868 136.802 439.817 136.854C439.765 136.905 439.699 136.931 439.619 136.931H438.299ZM451.467 136.931C451.387 136.931 451.321 136.905 451.269 136.854C451.218 136.802 451.192 136.736 451.192 136.656V129.506C451.192 129.425 451.218 129.359 451.269 129.308C451.321 129.256 451.387 129.231 451.467 129.231H456.604C456.685 129.231 456.751 129.256 456.802 129.308C456.854 129.359 456.879 129.425 456.879 129.506V130.54C456.879 130.62 456.854 130.686 456.802 130.738C456.751 130.789 456.685 130.815 456.604 130.815H453.095V132.3H456.362C456.443 132.3 456.509 132.329 456.56 132.388C456.612 132.439 456.637 132.505 456.637 132.586V133.543C456.637 133.616 456.612 133.682 456.56 133.741C456.509 133.792 456.443 133.818 456.362 133.818H453.095V135.347H456.692C456.773 135.347 456.839 135.372 456.89 135.424C456.942 135.475 456.967 135.541 456.967 135.622V136.656C456.967 136.736 456.942 136.802 456.89 136.854C456.839 136.905 456.773 136.931 456.692 136.931H451.467ZM462.563 136.931C462.482 136.931 462.416 136.905 462.365 136.854C462.313 136.802 462.288 136.736 462.288 136.656V129.506C462.288 129.425 462.313 129.359 462.365 129.308C462.416 129.256 462.482 129.231 462.563 129.231H465.423C466.141 129.231 466.754 129.348 467.26 129.583C467.766 129.81 468.154 130.147 468.426 130.595C468.697 131.035 468.844 131.581 468.866 132.234C468.873 132.556 468.877 132.839 468.877 133.081C468.877 133.323 468.873 133.601 468.866 133.917C468.836 134.599 468.69 135.163 468.426 135.611C468.169 136.058 467.791 136.392 467.293 136.612C466.801 136.824 466.196 136.931 465.478 136.931H462.563ZM464.257 135.347H465.423C465.738 135.347 465.998 135.299 466.204 135.204C466.416 135.101 466.574 134.943 466.677 134.731C466.787 134.518 466.845 134.239 466.853 133.895C466.867 133.682 466.875 133.491 466.875 133.323C466.882 133.154 466.882 132.985 466.875 132.817C466.875 132.648 466.867 132.461 466.853 132.256C466.838 131.757 466.706 131.394 466.457 131.167C466.215 130.932 465.852 130.815 465.368 130.815H464.257V135.347ZM474.507 136.931C474.426 136.931 474.36 136.905 474.309 136.854C474.257 136.802 474.232 136.736 474.232 136.656V129.506C474.232 129.425 474.257 129.359 474.309 129.308C474.36 129.256 474.426 129.231 474.507 129.231H475.981C476.061 129.231 476.127 129.256 476.179 129.308C476.23 129.359 476.256 129.425 476.256 129.506V136.656C476.256 136.736 476.23 136.802 476.179 136.854C476.127 136.905 476.061 136.931 475.981 136.931H474.507ZM485.025 137.041C484.328 137.041 483.731 136.927 483.232 136.7C482.741 136.472 482.356 136.139 482.077 135.699C481.806 135.259 481.655 134.712 481.626 134.06C481.619 133.759 481.615 133.436 481.615 133.092C481.615 132.747 481.619 132.417 481.626 132.102C481.655 131.464 481.809 130.925 482.088 130.485C482.367 130.037 482.755 129.7 483.254 129.473C483.753 129.238 484.343 129.121 485.025 129.121C485.509 129.121 485.956 129.183 486.367 129.308C486.778 129.425 487.137 129.601 487.445 129.836C487.753 130.063 487.991 130.342 488.16 130.672C488.336 130.994 488.428 131.361 488.435 131.772C488.442 131.838 488.42 131.893 488.369 131.937C488.325 131.981 488.27 132.003 488.204 132.003H486.719C486.624 132.003 486.55 131.984 486.499 131.948C486.448 131.904 486.404 131.827 486.367 131.717C486.264 131.328 486.096 131.064 485.861 130.925C485.634 130.778 485.351 130.705 485.014 130.705C484.611 130.705 484.292 130.818 484.057 131.046C483.822 131.266 483.694 131.636 483.672 132.157C483.65 132.758 483.65 133.374 483.672 134.005C483.694 134.525 483.822 134.899 484.057 135.127C484.292 135.347 484.611 135.457 485.014 135.457C485.351 135.457 485.637 135.383 485.872 135.237C486.107 135.09 486.272 134.826 486.367 134.445C486.396 134.335 486.437 134.261 486.488 134.225C486.547 134.181 486.624 134.159 486.719 134.159H488.204C488.27 134.159 488.325 134.181 488.369 134.225C488.42 134.269 488.442 134.324 488.435 134.39C488.428 134.8 488.336 135.171 488.16 135.501C487.991 135.823 487.753 136.102 487.445 136.337C487.137 136.564 486.778 136.74 486.367 136.865C485.956 136.982 485.509 137.041 485.025 137.041ZM493.125 136.931C493.066 136.931 493.011 136.909 492.96 136.865C492.916 136.813 492.894 136.758 492.894 136.7C492.894 136.663 492.898 136.63 492.905 136.601L495.49 129.539C495.512 129.458 495.556 129.388 495.622 129.33C495.695 129.264 495.794 129.231 495.919 129.231H497.547C497.672 129.231 497.767 129.264 497.833 129.33C497.906 129.388 497.954 129.458 497.976 129.539L500.55 136.601C500.565 136.63 500.572 136.663 500.572 136.7C500.572 136.758 500.546 136.813 500.495 136.865C500.451 136.909 500.396 136.931 500.33 136.931H498.977C498.867 136.931 498.783 136.905 498.724 136.854C498.673 136.795 498.64 136.744 498.625 136.7L498.196 135.578H495.259L494.841 136.7C494.826 136.744 494.793 136.795 494.742 136.854C494.691 136.905 494.603 136.931 494.478 136.931H493.125ZM495.71 133.994H497.756L496.722 131.09L495.71 133.994ZM505.784 136.931C505.703 136.931 505.637 136.905 505.586 136.854C505.535 136.802 505.509 136.736 505.509 136.656V129.506C505.509 129.425 505.535 129.359 505.586 129.308C505.637 129.256 505.703 129.231 505.784 129.231H507.236C507.309 129.231 507.372 129.256 507.423 129.308C507.482 129.359 507.511 129.425 507.511 129.506V135.27H510.833C510.914 135.27 510.98 135.299 511.031 135.358C511.09 135.409 511.119 135.475 511.119 135.556V136.656C511.119 136.736 511.09 136.802 511.031 136.854C510.98 136.905 510.914 136.931 510.833 136.931H505.784ZM522.572 136.931C522.491 136.931 522.425 136.905 522.374 136.854C522.322 136.802 522.297 136.736 522.297 136.656V129.506C522.297 129.425 522.322 129.359 522.374 129.308C522.425 129.256 522.491 129.231 522.572 129.231H527.709C527.789 129.231 527.855 129.256 527.907 129.308C527.958 129.359 527.984 129.425 527.984 129.506V130.54C527.984 130.62 527.958 130.686 527.907 130.738C527.855 130.789 527.789 130.815 527.709 130.815H524.2V132.3H527.467C527.547 132.3 527.613 132.329 527.665 132.388C527.716 132.439 527.742 132.505 527.742 132.586V133.543C527.742 133.616 527.716 133.682 527.665 133.741C527.613 133.792 527.547 133.818 527.467 133.818H524.2V135.347H527.797C527.877 135.347 527.943 135.372 527.995 135.424C528.046 135.475 528.072 135.541 528.072 135.622V136.656C528.072 136.736 528.046 136.802 527.995 136.854C527.943 136.905 527.877 136.931 527.797 136.931H522.572ZM532.985 136.931C532.919 136.931 532.86 136.909 532.809 136.865C532.765 136.813 532.743 136.758 532.743 136.7C532.743 136.678 532.747 136.656 532.754 136.634C532.761 136.612 532.772 136.59 532.787 136.568L535.185 133.004L532.963 129.594C532.941 129.55 532.93 129.506 532.93 129.462C532.93 129.403 532.952 129.352 532.996 129.308C533.04 129.256 533.095 129.231 533.161 129.231H534.756C534.866 129.231 534.95 129.26 535.009 129.319C535.068 129.37 535.108 129.418 535.13 129.462L536.45 131.464L537.781 129.462C537.81 129.418 537.854 129.37 537.913 129.319C537.972 129.26 538.056 129.231 538.166 129.231H539.673C539.739 129.231 539.794 129.256 539.838 129.308C539.889 129.352 539.915 129.403 539.915 129.462C539.915 129.513 539.9 129.557 539.871 129.594L537.638 132.993L540.058 136.568C540.073 136.59 540.08 136.612 540.08 136.634C540.087 136.656 540.091 136.678 540.091 136.7C540.091 136.758 540.069 136.813 540.025 136.865C539.981 136.909 539.926 136.931 539.86 136.931H538.221C538.111 136.931 538.023 136.905 537.957 136.854C537.898 136.795 537.858 136.747 537.836 136.711L536.373 134.599L534.943 136.711C534.921 136.747 534.881 136.795 534.822 136.854C534.763 136.905 534.679 136.931 534.569 136.931H532.985ZM545.332 136.931C545.251 136.931 545.185 136.905 545.134 136.854C545.082 136.802 545.057 136.736 545.057 136.656V129.506C545.057 129.425 545.082 129.359 545.134 129.308C545.185 129.256 545.251 129.231 545.332 129.231H548.412C549.02 129.231 549.548 129.326 549.996 129.517C550.45 129.7 550.802 129.979 551.052 130.353C551.308 130.727 551.437 131.2 551.437 131.772C551.437 132.336 551.308 132.802 551.052 133.169C550.802 133.535 550.45 133.807 549.996 133.983C549.548 134.159 549.02 134.247 548.412 134.247H547.103V136.656C547.103 136.736 547.073 136.802 547.015 136.854C546.963 136.905 546.897 136.931 546.817 136.931H545.332ZM547.07 132.729H548.357C548.672 132.729 548.921 132.648 549.105 132.487C549.295 132.325 549.391 132.08 549.391 131.75C549.391 131.471 549.31 131.236 549.149 131.046C548.987 130.855 548.723 130.76 548.357 130.76H547.07V132.729ZM556.835 136.931C556.755 136.931 556.689 136.905 556.637 136.854C556.586 136.802 556.56 136.736 556.56 136.656V129.506C556.56 129.425 556.586 129.359 556.637 129.308C556.689 129.256 556.755 129.231 556.835 129.231H561.972C562.053 129.231 562.119 129.256 562.17 129.308C562.222 129.359 562.247 129.425 562.247 129.506V130.54C562.247 130.62 562.222 130.686 562.17 130.738C562.119 130.789 562.053 130.815 561.972 130.815H558.463V132.3H561.73C561.811 132.3 561.877 132.329 561.928 132.388C561.98 132.439 562.005 132.505 562.005 132.586V133.543C562.005 133.616 561.98 133.682 561.928 133.741C561.877 133.792 561.811 133.818 561.73 133.818H558.463V135.347H562.06C562.141 135.347 562.207 135.372 562.258 135.424C562.31 135.475 562.335 135.541 562.335 135.622V136.656C562.335 136.736 562.31 136.802 562.258 136.854C562.207 136.905 562.141 136.931 562.06 136.931H556.835ZM567.931 136.931C567.85 136.931 567.784 136.905 567.733 136.854C567.681 136.802 567.656 136.736 567.656 136.656V129.506C567.656 129.425 567.681 129.359 567.733 129.308C567.784 129.256 567.85 129.231 567.931 129.231H570.923C571.869 129.231 572.613 129.451 573.156 129.891C573.706 130.323 573.981 130.939 573.981 131.739C573.981 132.259 573.852 132.699 573.596 133.059C573.346 133.418 573.016 133.689 572.606 133.873L574.124 136.579C574.146 136.623 574.157 136.663 574.157 136.7C574.157 136.758 574.131 136.813 574.08 136.865C574.036 136.909 573.981 136.931 573.915 136.931H572.463C572.323 136.931 572.221 136.898 572.155 136.832C572.089 136.758 572.041 136.692 572.012 136.634L570.758 134.214H569.625V136.656C569.625 136.736 569.599 136.802 569.548 136.854C569.496 136.905 569.43 136.931 569.35 136.931H567.931ZM569.625 132.663H570.901C571.245 132.663 571.502 132.578 571.671 132.41C571.847 132.241 571.935 132.01 571.935 131.717C571.935 131.431 571.85 131.2 571.682 131.024C571.52 130.848 571.26 130.76 570.901 130.76H569.625V132.663ZM581.225 136.931C581.144 136.931 581.078 136.905 581.027 136.854C580.976 136.802 580.95 136.736 580.95 136.656V130.958H578.992C578.911 130.958 578.845 130.932 578.794 130.881C578.743 130.822 578.717 130.756 578.717 130.683V129.506C578.717 129.425 578.743 129.359 578.794 129.308C578.845 129.256 578.911 129.231 578.992 129.231H584.91C584.991 129.231 585.057 129.256 585.108 129.308C585.159 129.359 585.185 129.425 585.185 129.506V130.683C585.185 130.756 585.159 130.822 585.108 130.881C585.057 130.932 584.991 130.958 584.91 130.958H582.952V136.656C582.952 136.736 582.926 136.802 582.875 136.854C582.824 136.905 582.758 136.931 582.677 136.931H581.225ZM593.104 137.041C592.371 137.041 591.762 136.938 591.278 136.733C590.794 136.52 590.427 136.245 590.178 135.908C589.929 135.57 589.797 135.211 589.782 134.83C589.782 134.771 589.804 134.72 589.848 134.676C589.899 134.624 589.958 134.599 590.024 134.599H591.41C591.513 134.599 591.59 134.617 591.641 134.654C591.7 134.69 591.751 134.738 591.795 134.797C591.854 134.907 591.934 135.013 592.037 135.116C592.147 135.218 592.286 135.303 592.455 135.369C592.631 135.427 592.847 135.457 593.104 135.457C593.529 135.457 593.848 135.391 594.061 135.259C594.281 135.127 594.391 134.947 594.391 134.72C594.391 134.558 594.332 134.426 594.215 134.324C594.098 134.214 593.907 134.118 593.643 134.038C593.386 133.95 593.042 133.862 592.609 133.774C592.052 133.656 591.575 133.506 591.179 133.323C590.79 133.132 590.493 132.886 590.288 132.586C590.083 132.278 589.98 131.896 589.98 131.442C589.98 130.994 590.105 130.595 590.354 130.243C590.611 129.891 590.966 129.616 591.421 129.418C591.876 129.22 592.415 129.121 593.038 129.121C593.544 129.121 593.988 129.187 594.369 129.319C594.758 129.451 595.084 129.627 595.348 129.847C595.612 130.067 595.81 130.301 595.942 130.551C596.081 130.793 596.155 131.031 596.162 131.266C596.162 131.324 596.14 131.379 596.096 131.431C596.052 131.475 595.997 131.497 595.931 131.497H594.479C594.398 131.497 594.329 131.482 594.27 131.453C594.211 131.423 594.16 131.376 594.116 131.31C594.072 131.148 593.955 131.009 593.764 130.892C593.581 130.767 593.339 130.705 593.038 130.705C592.715 130.705 592.462 130.763 592.279 130.881C592.103 130.991 592.015 131.163 592.015 131.398C592.015 131.544 592.063 131.673 592.158 131.783C592.261 131.893 592.426 131.988 592.653 132.069C592.888 132.149 593.207 132.234 593.61 132.322C594.277 132.446 594.816 132.604 595.227 132.795C595.638 132.978 595.938 133.22 596.129 133.521C596.32 133.814 596.415 134.184 596.415 134.632C596.415 135.13 596.272 135.563 595.986 135.93C595.707 136.289 595.319 136.564 594.82 136.755C594.321 136.945 593.749 137.041 593.104 137.041Z" fill="black"/>
</g>
<defs>
<filter id="filter0_d_93_2" x="1.85373" y="6.73492" width="752.061" height="195.161" filterUnits="userSpaceOnUse" color-interpolation-filters="sRGB">
<feFlood flood-opacity="0" result="BackgroundImageFix"/>
<feColorMatrix in="SourceAlpha" type="matrix" values="0 0 0 0 0 0 0 0 0 0 0 0 0 0 0 0 0 0 127 0" result="hardAlpha"/>
<feOffset dy="4"/>
<feGaussianBlur stdDeviation="2"/>
<feComposite in2="hardAlpha" operator="out"/>
<feColorMatrix type="matrix" values="0 0 0 0 0 0 0 0 0 0 0 0 0 0 0 0 0 0 0.25 0"/>
<feBlend mode="normal" in2="BackgroundImageFix" result="effect1_dropShadow_93_2"/>
<feBlend mode="normal" in="SourceGraphic" in2="effect1_dropShadow_93_2" result="shape"/>
</filter>
<filter id="filter1_d_93_2" x="27" y="50.9308" width="662" height="125" filterUnits="userSpaceOnUse" color-interpolation-filters="sRGB">
<feFlood flood-opacity="0" result="BackgroundImageFix"/>
<feColorMatrix in="SourceAlpha" type="matrix" values="0 0 0 0 0 0 0 0 0 0 0 0 0 0 0 0 0 0 127 0" result="hardAlpha"/>
<feOffset dy="4"/>
<feGaussianBlur stdDeviation="2"/>
<feComposite in2="hardAlpha" operator="out"/>
<feColorMatrix type="matrix" values="0 0 0 0 0 0 0 0 0 0 0 0 0 0 0 0 0 0 0.25 0"/>
<feBlend mode="normal" in2="BackgroundImageFix" result="effect1_dropShadow_93_2"/>
<feBlend mode="normal" in="SourceGraphic" in2="effect1_dropShadow_93_2" result="shape"/>
</filter>
<filter id="filter2_d_93_2" x="7" y="28.9308" width="702" height="165" filterUnits="userSpaceOnUse" color-interpolation-filters="sRGB">
<feFlood flood-opacity="0" result="BackgroundImageFix"/>
<feColorMatrix in="SourceAlpha" type="matrix" values="0 0 0 0 0 0 0 0 0 0 0 0 0 0 0 0 0 0 127 0" result="hardAlpha"/>
<feOffset dy="2"/>
<feGaussianBlur stdDeviation="12"/>
<feColorMatrix type="matrix" values="0 0 0 0 0.345098 0 0 0 0 0.494118 0 0 0 0 0.92549 0 0 0 0.15 0"/>
<feBlend mode="normal" in2="BackgroundImageFix" result="effect1_dropShadow_93_2"/>
<feBlend mode="normal" in="SourceGraphic" in2="effect1_dropShadow_93_2" result="shape"/>
</filter>
</defs>
</svg>
